<?xml version="1.0" encoding="UTF-8"?>
<svg version="1.1" xmlns="http://www.w3.org/2000/svg" width="637" height="637">
<path d="M0 0 C210.21 0 420.42 0 637 0 C637 210.21 637 420.42 637 637 C426.79 637 216.58 637 0 637 C0 426.79 0 216.58 0 0 Z " fill="#101010" transform="translate(0,0)"/>
<path d="M0 0 C18.81 0 37.62 0 57 0 C57 38.94 57 77.88 57 118 C90.71718329 119.46768423 90.71718329 119.46768423 119.28515625 106.92843628 C120.18863548 106.02041008 120.18863548 106.02041008 121.11036682 105.09403992 C122.07667274 104.1075219 122.07667274 104.1075219 123.0625 103.10107422 C123.75435898 102.40308212 124.44621796 101.70509003 125.15904236 100.98594666 C126.65839803 99.47230755 128.15550307 97.95643646 129.65060425 96.43859482 C132.02665203 94.02764396 134.40982482 91.62395296 136.79516602 89.22219849 C143.57565905 82.3929323 150.3450912 75.55278531 157.10498047 68.703125 C161.24528834 64.50885165 165.39561162 60.32469977 169.55200195 56.14636612 C171.12489989 54.56115099 172.69400716 52.97216436 174.2590332 51.37917709 C185.04612564 40.40123995 195.6003305 30.70604886 209.625 24 C210.77226562 23.443125 211.91953125 22.88625 213.1015625 22.3125 C217.41618992 20.35870645 220.65931752 19.81474621 225.375 19.75 C226.49648438 19.72421875 227.61796875 19.6984375 228.7734375 19.671875 C232.43500677 20.04423798 234.2472439 20.54524869 237 23 C238.84044304 30.83473517 237.12743051 39.05953344 234.625 46.5625 C234.42350342 47.19687988 234.22200684 47.83125977 234.0144043 48.48486328 C228.24534542 64.04637046 214.76328834 75.80642563 203.265625 87.14599609 C200.46730311 89.90726393 197.68585718 92.68474926 194.90625 95.46484375 C193.13636656 97.22491404 191.36556744 98.98406413 189.59375 100.7421875 C188.76049194 101.57321991 187.92723389 102.40425232 187.06872559 103.26046753 C186.30032349 104.01610992 185.53192139 104.77175232 184.74023438 105.55029297 C184.06424194 106.2186618 183.38824951 106.88703064 182.69177246 107.57565308 C181 109 181 109 179 109 C178.73445313 109.59167969 178.46890625 110.18335938 178.1953125 110.79296875 C175.03414568 116.6297637 168.98447564 120.98001035 163.9921875 125.2265625 C161.56025426 127.39145993 159.2906647 129.68592705 157 132 C155.91375955 133.07652992 154.82646496 134.15199692 153.73828125 135.2265625 C152.59632277 136.35934335 151.45439612 137.49215629 150.3125 138.625 C149.73177734 139.19734375 149.15105469 139.7696875 148.55273438 140.359375 C147.99521484 140.91367188 147.43769531 141.46796875 146.86328125 142.0390625 C146.10978394 142.78470459 146.10978394 142.78470459 145.34106445 143.54541016 C138.79466865 150.64597928 139.65647633 162.81783304 139.39086914 171.96337891 C139.33459524 173.63912208 139.33459524 173.63912208 139.27718449 175.34871864 C138.91015867 187.16065454 138.82763934 198.9741404 138.76840019 210.790905 C138.74540591 214.70296041 138.71188817 218.61483806 138.6733551 222.52676392 C138.663486 223.53107155 138.663486 223.53107155 138.65341753 224.55566823 C138.62624915 227.29522405 138.59865192 230.0347754 138.57087791 232.77432513 C138.49356253 240.45828104 138.42963961 248.14185843 138.40307617 255.82617188 C138.37930431 262.67136566 138.31403616 269.51520876 138.22444344 276.35985184 C138.19745428 278.94553583 138.18427228 281.53140499 138.18566704 284.11722946 C138.18557678 309.41295309 138.18557678 309.41295309 129 319 C128.08705271 320.25147602 127.19082013 321.51551578 126.3203125 322.796875 C125.59585937 323.77140625 124.87140625 324.7459375 124.125 325.75 C123.38507813 326.75546875 122.64515625 327.7609375 121.8828125 328.796875 C121.26148438 329.52390625 120.64015625 330.2509375 120 331 C119.34 331 118.68 331 118 331 C112.43281521 309.65112914 107.05937181 288.26193703 101.89526367 266.81176758 C99.31450266 256.13011445 96.53826321 245.52809884 93.54797363 234.95413208 C92.22458116 230.23477419 90.98717982 225.49252263 89.75 220.75 C89.49476563 219.78449219 89.23953125 218.81898438 88.9765625 217.82421875 C87.77675206 213.23336511 86.66329608 208.70624365 86 204 C85.34 204 84.68 204 84 204 C83.67708984 204.82951172 83.67708984 204.82951172 83.34765625 205.67578125 C81.5573069 208.7634852 79.0908423 210.86274498 76.4375 213.1875 C75.3461218 214.16365171 74.25629244 215.14153768 73.16796875 216.12109375 C72.62962402 216.60562012 72.0912793 217.09014648 71.53662109 217.58935547 C69.37221683 219.57631572 67.30924729 221.65481472 65.25 223.75 C61.90874495 227.13976692 58.45198999 230.31434812 54.82421875 233.39453125 C54.22222656 233.92433594 53.62023437 234.45414063 53 235 C52.30914307 235.47880615 51.61828613 235.9576123 50.90649414 236.45092773 C47.89448477 240.47812582 48.55308463 244.50157424 48.671875 249.390625 C48.67688154 251.48307057 48.68075189 253.57551912 48.68359375 255.66796875 C48.71057106 258.95772968 48.7499319 262.24633389 48.81103516 265.53564453 C48.86219031 268.71730412 48.86370033 271.89612291 48.859375 275.078125 C48.90732208 276.53946869 48.90732208 276.53946869 48.95623779 278.03033447 C48.91682162 283.64951893 48.1350815 286.46577327 44.09472656 290.49511719 C42.73345814 291.66765118 41.36891318 292.83640025 40 294 C39.21625 294.99 38.4325 295.98 37.625 297 C37.08875 297.66 36.5525 298.32 36 299 C35.34 299 34.68 299 34 299 C33.80558319 298.33236633 33.61116638 297.66473267 33.41085815 296.97686768 C31.56030283 290.66098058 29.65399659 284.36499729 27.6846447 278.08507156 C26.67418727 274.85605369 25.68584988 271.62355377 24.74658203 268.37304688 C21.45516308 253.61812103 21.45516308 253.61812103 12.54663086 242.47241211 C8.89894865 241.41924415 5.78479001 241.06142676 2 241 C0.51722921 240.68049963 -0.95884789 240.32447015 -2.41796875 239.91015625 C-3.66191406 239.63042969 -4.90585937 239.35070312 -6.1875 239.0625 C-15.51694104 236.92918023 -24.75650602 234.4757547 -34 232 C-32.59132499 227.71239355 -30.51792965 225.08082102 -27.4375 221.8125 C-24.35814202 218.65811063 -24.35814202 218.65811063 -22 215 C-21.41721283 215.02522232 -20.83442566 215.05044464 -20.23397827 215.07643127 C-14.10027876 215.32459689 -7.97236817 215.4493829 -1.83398438 215.5065918 C0.44764681 215.54347022 2.72901643 215.61053188 5.00878906 215.7097168 C17.75823232 216.58118914 17.75823232 216.58118914 29.39450073 212.34973145 C33.55609349 208.4052452 36.71661939 203.9123272 39.7073822 199.04341125 C41.51717696 196.18243024 43.61384241 193.69658696 45.8125 191.125 C46.49957031 190.28324219 47.18664062 189.44148437 47.89453125 188.57421875 C49.42903328 186.69808361 50.96881956 184.82626682 52.51171875 182.95703125 C53.33285156 181.96058594 54.15398437 180.96414063 55 179.9375 C56.11375 178.58978516 56.11375 178.58978516 57.25 177.21484375 C59.02064794 175.12837766 59.02064794 175.12837766 60 173 C58.04646606 172.81099121 58.04646606 172.81099121 56.0534668 172.61816406 C51.32848191 172.09091797 46.77207205 171.18188087 42.14453125 170.109375 C40.92128395 169.83215355 40.92128395 169.83215355 39.67332458 169.54933167 C37.05198091 168.95414148 34.43226307 168.35210511 31.8125 167.75 C29.99262104 167.33570684 28.17263337 166.92189098 26.35253906 166.50854492 C21.23370275 165.34478134 16.11663466 164.17339967 11 163 C7.08356631 162.10314366 3.16696754 161.20702182 -0.75 160.3125 C-1.55759766 160.12751953 -2.36519531 159.94253906 -3.19726562 159.75195312 C-12.07903106 157.73048867 -20.99075953 155.84636883 -29.90332031 153.96606445 C-31.0425293 153.72460693 -32.18173828 153.48314941 -33.35546875 153.234375 C-34.37278076 153.02006836 -35.39009277 152.80576172 -36.43823242 152.58496094 C-39 152 -39 152 -42 151 C-41.94930139 151.59351792 -41.89860277 152.18703585 -41.84636784 152.79853916 C-40.24449248 171.86716152 -39.17824242 190.93910113 -38.5625 210.0625 C-38.52676935 211.142021 -38.52676935 211.142021 -38.49031687 212.24335051 C-36.40207845 277.10370737 -36.40207845 277.10370737 -57.85527039 300.65232849 C-61.51349438 304.45095558 -65.39733083 307.92690844 -69.4375 311.3125 C-70.09314564 311.86317768 -70.74879128 312.41385536 -71.42430496 312.98122025 C-93.16846759 331 -93.16846759 331 -98 331 C-98 275.56 -98 220.12 -98 163 C-118.79 163 -139.58 163 -161 163 C-159.02 160.69 -157.04 158.38 -155 156 C-153.35885373 154.02328044 -151.71976942 152.04484713 -150.08276367 150.06469727 C-143.66161476 142.37221214 -137.00580421 134.90462091 -130.1875 127.5625 C-129.57950562 126.90710236 -128.97151123 126.25170471 -128.34509277 125.57644653 C-113.72439652 109.95213765 -100.78001005 97.25786676 -78.62113953 96.09999084 C-66.20537429 96.03018333 -54.18019672 97.71621311 -42 100 C-42 108.25 -42 116.5 -42 125 C-34.20843513 124.34966734 -34.20843513 124.34966734 -26.41821289 123.68359375 C-17.18191557 122.94333871 -8.361635 123 1 123 C1 103.53 1 84.06 1 64 C-19.79 64 -40.58 64 -62 64 C-58.18147215 59.54505084 -54.43533691 55.29403316 -50.28588867 51.18823242 C-49.4823143 50.38684845 -49.4823143 50.38684845 -48.6625061 49.5692749 C-47.51293004 48.42347034 -46.36220156 47.27882099 -45.21040916 46.13524437 C-43.38836978 44.32607892 -41.56956975 42.51371104 -39.75154114 40.70051575 C-35.89967595 36.86001187 -32.04386738 33.02348235 -28.1875 29.1875 C-23.69960683 24.7232127 -19.21334724 20.25730866 -14.73125648 15.78719521 C-12.93787145 14.00029943 -11.14150719 12.21643558 -9.34501648 10.43266296 C-8.25224388 9.34352074 -7.15961024 8.25423909 -6.06713867 7.16479492 C-5.5658696 6.66869217 -5.06460052 6.17258942 -4.54814148 5.66145325 C-1.94453651 3.0796689 -1.94453651 3.0796689 0 0 Z " fill="#FCFCFC" transform="translate(278,97)"/>
<path d="M0 0 C0.04684595 24.85319263 0.08205033 49.70637857 0.10362434 74.55960655 C0.11391046 86.10095069 0.12791953 97.64226729 0.15087891 109.18359375 C0.17089471 119.25007828 0.18373577 129.31654286 0.18817699 139.38304675 C0.19077057 144.70673827 0.19681031 150.03037274 0.21146011 155.35404587 C0.22517383 160.37891258 0.22919519 165.40369949 0.22621536 170.42858315 C0.22675943 172.25934218 0.23065386 174.09010426 0.23841095 175.92084694 C0.29768792 190.65036177 0.11968611 205.93016235 -4.25 220.125 C-4.46615967 220.85960449 -4.68231934 221.59420898 -4.9050293 222.35107422 C-17.06506299 262.72845526 -41.08845627 294.25830421 -78.15234375 314.7421875 C-81.06766508 316.25267613 -84.00827676 317.64752408 -87 319 C-88.07765625 319.50144531 -89.1553125 320.00289062 -90.265625 320.51953125 C-107.044697 327.81879715 -125.62954895 331.17380364 -143.87060547 331.12025452 C-144.94324803 331.12110894 -146.0158906 331.12196337 -147.12103748 331.12284368 C-150.70310466 331.12448636 -154.28512466 331.11899697 -157.8671875 331.11352539 C-160.43976338 331.11324323 -163.01233933 331.11340181 -165.58491516 331.1139679 C-171.11727382 331.11449115 -176.64962064 331.11136513 -182.18197632 331.10573006 C-190.18074146 331.0975881 -198.17950091 331.09499707 -206.17826974 331.09374207 C-219.15709843 331.09155578 -232.13592082 331.08490718 -245.11474609 331.07543945 C-257.71923796 331.06625438 -270.32372812 331.0591789 -282.92822266 331.05493164 C-283.70572671 331.05466892 -284.48323077 331.05440619 -285.28429556 331.05413551 C-289.18497307 331.05283043 -293.08565059 331.05156673 -296.98632812 331.05032361 C-329.32422333 331.03996418 -361.66211079 331.02235739 -394 331 C-392.37634232 327.53450492 -390.7019212 325.635339 -387.77212524 323.14002991 C-380.76240038 316.98047127 -374.23288571 310.36493394 -367.64599609 303.75952148 C-366.22603496 302.33927776 -364.80585256 300.91925522 -363.38546753 299.49943542 C-359.55749396 295.67174701 -355.73259641 291.84099847 -351.90827131 288.00966525 C-347.90090665 283.99601995 -343.89068166 279.98523455 -339.88076782 275.97413635 C-332.3000736 268.39034265 -324.7219306 260.80400499 -317.14471591 253.21673495 C-308.51301945 244.57383429 -299.87845982 235.93379645 -291.24366641 227.29399002 C-273.49260486 209.53249541 -255.74511625 191.76743429 -238 174 C-238 178.05037633 -240.01296044 180.30952023 -242.1875 183.5625 C-259.10845697 209.9000696 -271.67676435 239.94885947 -275.52685547 271.16392517 C-275.68299316 272.42982986 -275.83913086 273.69573456 -276 275 C-258.36186057 274.91588147 -240.7238199 274.82066884 -223.08581257 274.71247292 C-214.89503636 274.66248356 -206.70426947 274.61603983 -198.51342773 274.578125 C-191.36912059 274.54504531 -184.22488887 274.50512761 -177.08066529 274.45720994 C-173.30255802 274.43210266 -169.52449976 274.41027613 -165.74633217 274.39665604 C-162.17993269 274.38369085 -158.61370268 274.36148595 -155.04739761 274.33261681 C-153.13551886 274.31942396 -151.22358211 274.31564771 -149.31166077 274.31230164 C-138.20922992 274.20642366 -127.46353314 272.94512229 -116.9375 269.3125 C-115.79390015 268.92276001 -115.79390015 268.92276001 -114.62719727 268.52514648 C-92.06091365 260.5111525 -75.96821665 243.68137601 -65.6875 222.5 C-56.92217802 202.44416633 -56.73332945 182.65884715 -56.84786606 161.18214417 C-56.87007648 156.83554233 -56.87022026 152.48910282 -56.86599731 148.14245605 C-56.86480459 146.64566805 -56.86363555 145.14888002 -56.8624897 143.65209198 C-56.86161932 142.52931555 -56.86161932 142.52931555 -56.86073136 141.38385677 C-56.85473218 131.28928858 -56.86733833 121.19502007 -56.92089844 111.10058594 C-56.95704999 104.25385001 -56.96477957 97.40771029 -56.94040024 90.56091452 C-56.9287437 86.94927586 -56.93166909 83.33897648 -56.96990585 79.72749329 C-57.01234329 75.70879824 -56.99276511 71.69267277 -56.96826172 67.67382812 C-56.99081528 66.48826324 -57.01336884 65.30269836 -57.03660583 64.08120728 C-56.91781449 56.18189065 -56.91781449 56.18189065 -54.27954483 52.78453064 C-52.26727917 51.01517682 -50.2043798 49.51815503 -48 48 C-44.2948476 44.56543508 -40.89464643 40.91091143 -37.625 37.0625 C-34.49808185 33.42377686 -31.08418852 30.32409787 -27.40625 27.25 C-25.36605237 25.34228274 -23.591741 23.42401082 -21.7734375 21.3125 C-17.76391169 16.66239906 -13.47623838 12.32873197 -9.125 8 C-7.96871094 6.83791016 -7.96871094 6.83791016 -6.7890625 5.65234375 C-5.69078125 4.55599609 -5.69078125 4.55599609 -4.5703125 3.4375 C-3.57668701 2.44556641 -3.57668701 2.44556641 -2.56298828 1.43359375 C-1 0 -1 0 0 0 Z " fill="#FAFAFA" transform="translate(511,205)"/>
<path d="M0 0 C0 63.69 0 127.38 0 193 C-0.33 193 -0.66 193 -1 193 C-1.33 139.21 -1.66 85.42 -2 30 C-19.38097487 54.33336482 -30.2625874 78.27824271 -38 107 C-38.23299805 107.85271484 -38.46599609 108.70542969 -38.70605469 109.58398438 C-41.63297708 120.39171756 -44.08787203 131.26666636 -46.30859375 142.23828125 C-46.61027214 143.72809258 -46.61027214 143.72809258 -46.91804504 145.2480011 C-47.9363593 150.29478454 -48.94082329 155.34394995 -49.92895508 160.39672852 C-50.30155504 162.27230613 -50.67419333 164.14787612 -51.046875 166.0234375 C-51.21436752 166.89942093 -51.38186005 167.77540436 -51.5544281 168.67793274 C-51.71532425 169.48208115 -51.8762204 170.28622955 -52.04199219 171.11474609 C-52.17933777 171.81957123 -52.31668335 172.52439636 -52.45819092 173.25057983 C-53 175 -53 175 -55 177 C-55.31778744 161.21465433 -55.5891695 145.42923275 -55.8056488 129.64221096 C-55.90724615 122.31161126 -56.02389602 114.9818342 -56.17626953 107.65209961 C-56.309074 101.2618569 -56.41334422 94.87188676 -56.483675 88.48063999 C-56.5218909 85.09762273 -56.5741654 81.71616927 -56.66064453 78.33401299 C-56.75013084 74.55340843 -56.78914627 70.77539075 -56.81640625 66.99389648 C-56.8545192 65.87827332 -56.89263214 64.76265015 -56.93190002 63.61322021 C-56.91331986 56.16040042 -56.91331986 56.16040042 -54.28878784 52.82585335 C-52.27195435 51.05339285 -50.19910907 49.53602211 -48 48 C-44.29663198 44.56305583 -40.89491582 40.9112285 -37.625 37.0625 C-34.49808185 33.42377686 -31.08418852 30.32409787 -27.40625 27.25 C-25.36605237 25.34228274 -23.591741 23.42401082 -21.7734375 21.3125 C-17.76391169 16.66239906 -13.47623838 12.32873197 -9.125 8 C-7.96871094 6.83791016 -7.96871094 6.83791016 -6.7890625 5.65234375 C-6.056875 4.92144531 -5.3246875 4.19054687 -4.5703125 3.4375 C-3.90789551 2.77621094 -3.24547852 2.11492187 -2.56298828 1.43359375 C-1 0 -1 0 0 0 Z " fill="#CECECF" transform="translate(511,205)"/>
<path d="M0 0 C0.33 0 0.66 0 1 0 C1 8.25 1 16.5 1 25 C9.58 24.67 18.16 24.34 27 24 C27 34.56 27 45.12 27 56 C28.485 56.495 28.485 56.495 30 57 C23.51093459 56.33425862 17.32918678 54.99578944 11 53.4375 C9.55173828 53.08655273 9.55173828 53.08655273 8.07421875 52.72851562 C5.71515983 52.15626866 3.35715708 51.58002171 1 51 C0.17042963 33.98939479 -0.13580541 17.02999894 0 0 Z " fill="#CDCCCE" transform="translate(235,197)"/>
<path d="M0 0 C0.33 0 0.66 0 1 0 C1 1.65 1 3.3 1 5 C45.55 5 90.1 5 136 5 C136 5.66 136 6.32 136 7 C90.79 7 45.58 7 -1 7 C-0.67 4.69 -0.34 2.38 0 0 Z " fill="#272728" transform="translate(236,473)"/>
<path d="M0 0 C0 4.07546013 -1.55304448 5.80536362 -4 9 C-4.9590625 9.47179687 -4.9590625 9.47179687 -5.9375 9.953125 C-8.37446699 11.19007036 -9.53654036 12.57062874 -11.25 14.6875 C-13.51339209 17.48312538 -15.92601845 19.85137766 -18.64453125 22.19140625 C-23.45294117 26.33695125 -27.94797441 30.76415133 -32.4375 35.25 C-33.65856445 36.45269531 -33.65856445 36.45269531 -34.90429688 37.6796875 C-35.67708984 38.45054687 -36.44988281 39.22140625 -37.24609375 40.015625 C-37.94404053 40.70946289 -38.6419873 41.40330078 -39.36108398 42.11816406 C-41.21461893 44.00287874 -41.21461893 44.00287874 -42 47 C-43.31307788 47.70572565 -44.64955661 48.36871173 -46 49 C-47.67189592 50.38097127 -47.67189592 50.38097127 -49.25238037 52.01187134 C-49.87211227 52.62885391 -50.49184418 53.24583649 -51.13035583 53.8815155 C-51.79857864 54.55692886 -52.46680145 55.23234222 -53.15527344 55.92822266 C-53.86786819 56.64052536 -54.58046295 57.35282806 -55.31465149 58.0867157 C-57.66766451 60.4411215 -60.0135151 62.80253125 -62.359375 65.1640625 C-63.98989975 66.79831755 -65.62086676 68.43213146 -67.2522583 70.06552124 C-71.54416676 74.36506473 -75.83003514 78.67058065 -80.11468506 82.97735596 C-84.48819822 87.37133023 -88.86738079 91.75964603 -93.24609375 96.1484375 C-101.83629625 104.76008764 -110.4201302 113.37805611 -119 122 C-119.66 121.67 -120.32 121.34 -121 121 C-81.07 81.07 -41.14 41.14 0 0 Z " fill="#E5E6E5" transform="translate(273,379)"/>
<path d="M0 0 C0.66 0.33 1.32 0.66 2 1 C-0.35690769 4.24074808 -2.90060202 6.85412743 -5.9375 9.4375 C-9.39549898 12.38678032 -12.18495414 15.43979494 -15 19 C-17.30279665 21.30279665 -19.75930075 23.36476586 -22.24609375 25.46484375 C-23.903735 26.91574132 -25.46172518 28.42409154 -27 30 C-27.66 29.67 -28.32 29.34 -29 29 C-19.43 19.43 -9.86 9.86 0 0 Z " fill="#ECECED" transform="translate(270,106)"/>
<path d="M0 0 C1.98 0 3.96 0 6 0 C6 0.66 6 1.32 6 2 C6.556875 1.97679687 7.11375 1.95359375 7.6875 1.9296875 C13.17609015 1.79988976 17.7293351 2.46671566 23 4 C23 4.66 23 5.32 23 6 C23.99 6.33 24.98 6.66 26 7 C20.05349367 6.35215814 14.32612517 5.28016565 8.5 3.9375 C7.67757812 3.75123047 6.85515625 3.56496094 6.0078125 3.37304688 C4.0044283 2.91879115 2.0020997 2.45988401 0 2 C0 1.34 0 0.68 0 0 Z " fill="#B9B9B9" transform="translate(239,247)"/>
<path d="M0 0 C0.33 0 0.66 0 1 0 C1.33 7.26 1.66 14.52 2 22 C5.31544299 23.10514766 8.20410111 23.32107631 11.6875 23.5625 C12.86699219 23.64628906 14.04648438 23.73007813 15.26171875 23.81640625 C16.61716797 23.90728516 16.61716797 23.90728516 18 24 C18 24.33 18 24.66 18 25 C12.06 25 6.12 25 0 25 C0 16.75 0 8.5 0 0 Z " fill="#2D2D2D" transform="translate(236,197)"/>
<path d="M0 0 C0.33 0 0.66 0 1 0 C1.07403712 5.23271569 1.12854783 10.46512801 1.16479492 15.69824219 C1.17990173 17.47922067 1.20038835 19.26016184 1.22631836 21.04101562 C1.26261943 23.59774978 1.27970688 26.1539931 1.29296875 28.7109375 C1.30845261 29.50994476 1.32393646 30.30895203 1.33988953 31.13217163 C1.34057617 33.37646484 1.34057617 33.37646484 1 37 C0.01 37.66 -0.98 38.32 -2 39 C-1.84152588 38.17097168 -1.68305176 37.34194336 -1.51977539 36.48779297 C-0.95752623 32.71499279 -0.77565388 29.0009269 -0.68359375 25.1953125 C-0.66281265 24.4713327 -0.64203156 23.74735291 -0.62062073 23.00143433 C-0.55571147 20.70937761 -0.49651563 18.41721526 -0.4375 16.125 C-0.39425888 14.56248947 -0.35064289 12.99998928 -0.30664062 11.4375 C-0.20009104 7.62510574 -0.09866205 3.8126062 0 0 Z " fill="#050505" transform="translate(416,368)"/>
<path d="M0 0 C0 8.91 0 17.82 0 27 C-0.33 27 -0.66 27 -1 27 C-1.33 19.41 -1.66 11.82 -2 4 C-3.32 5.32 -4.64 6.64 -6 8 C-6.66 7.67 -7.32 7.34 -8 7 C-6.8572081 5.83035398 -5.71068285 4.66435444 -4.5625 3.5 C-3.92441406 2.8503125 -3.28632813 2.200625 -2.62890625 1.53125 C-1 0 -1 0 0 0 Z " fill="#B2B2B2" transform="translate(511,205)"/>
<path d="M0 0 C0 4.07546013 -1.55304448 5.80536362 -4 9 C-5.33223955 9.66884977 -6.66567239 10.33532561 -8 11 C-9.9499629 12.70995544 -9.9499629 12.70995544 -11.75 14.625 C-12.36359375 15.25664062 -12.9771875 15.88828125 -13.609375 16.5390625 C-14.06828125 17.02117187 -14.5271875 17.50328125 -15 18 C-15.66 17.67 -16.32 17.34 -17 17 C-11.39 11.39 -5.78 5.78 0 0 Z " fill="#D3D3D4" transform="translate(273,379)"/>
<path d="M0 0 C0 1.66666667 0 3.33333333 0 5 C-3.465 6.485 -3.465 6.485 -7 8 C-7 7.34 -7 6.68 -7 6 C-8.32 5.67 -9.64 5.34 -11 5 C-7.37 3.35 -3.74 1.7 0 0 Z " fill="#EBEBEC" transform="translate(409,468)"/>
<path d="M0 0 C0.99 0 1.98 0 3 0 C3.70045456 1.91197039 4.384919 3.82980435 5.0625 5.75 C5.44535156 6.81734375 5.82820313 7.8846875 6.22265625 8.984375 C6.98010011 11.92280042 7.07151741 13.22348948 6 16 C4.45921385 13.01559439 3.13026724 9.98992242 1.875 6.875 C1.52179688 6.00617188 1.16859375 5.13734375 0.8046875 4.2421875 C0 2 0 2 0 0 Z " fill="#232323" transform="translate(292,342)"/>
<path d="M0 0 C1.98 0 3.96 0 6 0 C5.82374165 2.37948772 5.30280227 3.70225849 3.59765625 5.37890625 C2.09350908 6.62115486 0.54870149 7.81376056 -1 9 C-1.33 7.68 -1.66 6.36 -2 5 C-1.34 5 -0.68 5 0 5 C0 3.68 0 2.36 0 1 C0 0.67 0 0.34 0 0 Z " fill="#171717" transform="translate(153,215)"/>
<path d="M0 0 C2.125 0.375 2.125 0.375 4 1 C2.61811547 4.21043882 1.07578097 6.04936365 -1.625 8.25 C-2.25664062 8.77078125 -2.88828125 9.2915625 -3.5390625 9.828125 C-4.02117187 10.21484375 -4.50328125 10.6015625 -5 11 C-5 10.01 -5 9.02 -5 8 C-4.34 8 -3.68 8 -3 8 C-3 7.34 -3 6.68 -3 6 C-2.34 6 -1.68 6 -1 6 C-1.309375 5.071875 -1.309375 5.071875 -1.625 4.125 C-1.810625 3.073125 -1.810625 3.073125 -2 2 C-1.34 1.34 -0.68 0.68 0 0 Z " fill="#181818" transform="translate(440,155)"/>
<path d="M0 0 C1.1196437 3.35893109 1.07992835 4.67714354 0 8 C-1.875 9.875 -1.875 9.875 -4 11 C-4.99 10.67 -5.98 10.34 -7 10 C-3.535 5.05 -3.535 5.05 0 0 Z " fill="#202020" transform="translate(507,153)"/>
<path d="M0 0 C0.66 0.33 1.32 0.66 2 1 C2 1.99 2 2.98 2 4 C2.99 3.67 3.98 3.34 5 3 C4.67 3.99 4.34 4.98 4 6 C-1.75 7.125 -1.75 7.125 -4 6 C-4 4 -4 4 -2 1.875 C-1.34 1.25625 -0.68 0.6375 0 0 Z " fill="#232323" transform="translate(400,424)"/>
<path d="M0 0 C2.31 0.33 4.62 0.66 7 1 C6.34 2.65 5.68 4.3 5 6 C2 6 2 6 0 5 C0 3.35 0 1.7 0 0 Z " fill="#252525" transform="translate(331,269)"/>
<path d="M0 0 C0.66 0.33 1.32 0.66 2 1 C1.52949219 1.45890625 1.05898438 1.9178125 0.57421875 2.390625 C-3.33094414 6.22585692 -3.33094414 6.22585692 -6.8125 10.4375 C-7.4003125 11.2109375 -7.4003125 11.2109375 -8 12 C-8.66 12 -9.32 12 -10 12 C-8.52278578 8.54798361 -6.56205999 6.35038064 -3.875 3.75 C-3.15054687 3.04359375 -2.42609375 2.3371875 -1.6796875 1.609375 C-1.12539063 1.07828125 -0.57109375 0.5471875 0 0 Z " fill="#2C2C2C" transform="translate(337,325)"/>
<path d="M0 0 C3 0 3 0 7 2 C3.535 4.97 3.535 4.97 0 8 C0 6.68 0 5.36 0 4 C-0.33 3.01 -0.66 2.02 -1 1 C-0.67 0.67 -0.34 0.34 0 0 Z " fill="#0A0A0A" transform="translate(486,221)"/>
<path d="M0 0 C0.99 0.33 1.98 0.66 3 1 C1.02 3.31 -0.96 5.62 -3 8 C-3.66 7.67 -4.32 7.34 -5 7 C-3.70700306 4.11562221 -2.34058637 2.12780579 0 0 Z " fill="#1C1C1D" transform="translate(269,103)"/>
<path d="M0 0 C0 0.66 0 1.32 0 2 C-1.55966592 2.36644578 -3.12292651 2.71760862 -4.6875 3.0625 C-5.55761719 3.25972656 -6.42773438 3.45695313 -7.32421875 3.66015625 C-10.16001276 4.02032279 -12.24789982 3.70909969 -15 3 C-15 2.67 -15 2.34 -15 2 C-13.2508503 1.66223316 -11.50063855 1.32996329 -9.75 1 C-8.77546875 0.814375 -7.8009375 0.62875 -6.796875 0.4375 C-4 0 -4 0 0 0 Z " fill="#292929" transform="translate(401,532)"/>
<path d="M0 0 C0.66 0 1.32 0 2 0 C1.60196439 2.88575819 1.20990931 3.82189513 -1.0625 5.75 C-1.701875 6.1625 -2.34125 6.575 -3 7 C-3.33 6.01 -3.66 5.02 -4 4 C-4.66 3.67 -5.32 3.34 -6 3 C-5.01 2.34 -4.02 1.68 -3 1 C-2.01 1.33 -1.02 1.66 0 2 C0 1.34 0 0.68 0 0 Z " fill="#171717" transform="translate(173,199)"/>
<path d="M0 0 C-1.1858237 3.37503669 -2.27573689 5.64722731 -5 8 C-5.99 6.68 -6.98 5.36 -8 4 C-2.25 0 -2.25 0 0 0 Z " fill="#E5E5E7" transform="translate(421,461)"/>
<path d="M0 0 C0.66 0 1.32 0 2 0 C1.67 1.32 1.34 2.64 1 4 C-0.65 4.33 -2.3 4.66 -4 5 C-2.71937515 3.2925002 -1.38232443 1.62626404 0 0 Z M-5 5 C-5 5.99 -5 6.98 -5 8 C-6.98 8.99 -6.98 8.99 -9 10 C-7.68 8.35 -6.36 6.7 -5 5 Z " fill="#0A0A0A" transform="translate(457,207)"/>
<path d="M0 0 C0.33 1.32 0.66 2.64 1 4 C-1.3125 6.0625 -1.3125 6.0625 -4 8 C-4.99 7.67 -5.98 7.34 -7 7 C-4.69 4.69 -2.38 2.38 0 0 Z " fill="#171717" transform="translate(350,313)"/>
<path d="M0 0 C0.66 0.99 1.32 1.98 2 3 C-1.26545761 4.88391785 -4.28111761 5.49287967 -8 6 C-5.38485683 3.87961365 -2.80362384 1.86908256 0 0 Z " fill="#262626" transform="translate(449,509)"/>
<path d="M0 0 C0.66 0.33 1.32 0.66 2 1 C1.67 1.66 1.34 2.32 1 3 C0.01 3 -0.98 3 -2 3 C-2 3.66 -2 4.32 -2 5 C-3.65 4.67 -5.3 4.34 -7 4 C-4.66603411 2.44402274 -2.57343171 1.07918104 0 0 Z " fill="#2E2E2E" transform="translate(428,521)"/>
<path d="M0 0 C2.02350324 3.03525486 2.32124018 4.19426202 2.625 7.6875 C2.69976562 8.49574219 2.77453125 9.30398438 2.8515625 10.13671875 C2.90054687 10.75160156 2.94953125 11.36648438 3 12 C2.67 11.34 2.34 10.68 2 10 C1.34 10 0.68 10 0 10 C0 6.7 0 3.4 0 0 Z " fill="#3E3E3E" transform="translate(367,314)"/>
<path d="M0 0 C0 3.90838866 -1.50567876 5.11594107 -4 8 C-4.99 7.67 -5.98 7.34 -7 7 C-4.69 4.69 -2.38 2.38 0 0 Z " fill="#B8B8BA" transform="translate(494,221)"/>
<path d="M0 0 C0.99 0.33 1.98 0.66 3 1 C2.1875 3.4375 2.1875 3.4375 1 6 C0.01 6.33 -0.98 6.66 -2 7 C-1.34 4.69 -0.68 2.38 0 0 Z " fill="#272727" transform="translate(248,427)"/>
<path d="M0 0 C-0.25 1.875 -0.25 1.875 -1 4 C-3.0625 5.25 -3.0625 5.25 -5 6 C-4.625 3.5625 -4.625 3.5625 -4 1 C-2 0 -2 0 0 0 Z " fill="#1B1B1C" transform="translate(423,456)"/>
<path d="M0 0 C0.99 0.33 1.98 0.66 3 1 C1.35 2.65 -0.3 4.3 -2 6 C-2.66 5.67 -3.32 5.34 -4 5 C-2.68 3.35 -1.36 1.7 0 0 Z " fill="#1F1F1F" transform="translate(320,388)"/>
<path d="M0 0 C0.66 0.33 1.32 0.66 2 1 C1.67 2.65 1.34 4.3 1 6 C-0.32 6 -1.64 6 -3 6 C-1.125 1.125 -1.125 1.125 0 0 Z " fill="#0A0A0A" transform="translate(275,378)"/>
</svg>
